<?xml version="1.0" standalone="no"?>
<!DOCTYPE svg PUBLIC "-//W3C//DTD SVG 20010904//EN"
 "http://www.w3.org/TR/2001/REC-SVG-20010904/DTD/svg10.dtd">
<svg version="1.0" xmlns="http://www.w3.org/2000/svg"
 width="483.000000pt" height="209.000000pt" viewBox="0 0 483.000000 209.000000"
 preserveAspectRatio="xMidYMid meet">

<g transform="translate(0.000000,209.000000) scale(0.100000,-0.100000)"
fill="#000000" stroke="none">
<path d="M502 1100 l3 -302 54 -18 c76 -27 144 -74 201 -139 l50 -56 0 312 0
312 -52 54 c-51 52 -165 118 -231 133 l-27 6 2 -302z"/>
<path d="M354 1317 c-2 -7 -3 -152 -2 -322 l3 -310 85 -7 c94 -7 217 -43 280
-83 55 -34 60 -31 19 11 -51 54 -135 105 -214 130 l-70 22 -3 265 c-3 286 0
275 -60 295 -25 9 -34 8 -38 -1z"/>
<path d="M1620 1242 c-51 -25 -83 -91 -77 -159 9 -89 55 -133 142 -133 59 0
98 20 118 62 l16 33 -30 3 c-23 3 -35 -3 -50 -22 -27 -34 -71 -35 -104 -1 -20
19 -25 34 -25 73 0 65 27 102 75 102 32 0 65 -21 65 -41 0 -5 14 -9 30 -9 35
0 40 21 14 59 -34 48 -114 64 -174 33z"/>
<path d="M2858 1148 c-2 -62 -2 -132 0 -155 4 -40 6 -43 33 -43 l30 0 -3 153
-3 152 -26 3 -26 3 -5 -113z"/>
<path d="M2980 1200 c0 -20 -5 -30 -15 -30 -8 0 -15 -9 -15 -20 0 -11 7 -20
15 -20 12 0 15 -14 15 -68 0 -87 16 -112 71 -112 35 0 39 3 39 25 0 18 -5 25
-19 25 -22 0 -31 19 -31 65 0 46 9 65 31 65 28 0 25 38 -3 42 -17 2 -24 11
-26 31 -3 23 -8 27 -33 27 -26 0 -29 -3 -29 -30z"/>
<path d="M258 1193 c-17 -4 -18 -28 -18 -329 l0 -325 48 8 c58 10 353 11 406
1 63 -12 29 8 -74 43 -77 26 -117 33 -207 37 l-113 5 0 283 c0 297 1 289 -42
277z"/>
<path d="M1150 1179 c0 -46 -17 -59 -80 -59 l-60 0 0 -53 c0 -29 -5 -58 -12
-65 -7 -7 -39 -12 -75 -12 l-63 0 0 -230 0 -229 38 13 c21 8 64 19 96 26 l57
12 -3 121 c-3 104 -1 122 12 121 8 -1 60 -33 115 -73 l100 -72 3 252 c2 195
-1 254 -10 261 -7 4 -37 8 -65 8 -47 0 -53 -2 -53 -21z"/>
<path d="M1914 1171 c-40 -17 -64 -60 -64 -113 0 -41 5 -54 29 -79 25 -24 38
-29 80 -29 72 0 103 28 109 102 4 50 1 58 -24 87 -31 35 -90 49 -130 32z m80
-63 c9 -12 16 -35 16 -50 0 -27 -30 -68 -50 -68 -20 0 -50 41 -50 68 0 62 54
93 84 50z"/>
<path d="M2201 1164 c-18 -13 -26 -14 -29 -6 -2 7 -17 12 -33 12 l-29 0 0
-110 0 -110 30 0 30 0 0 73 c0 59 4 77 18 90 23 21 36 21 56 1 12 -11 16 -36
16 -90 l0 -74 30 0 30 0 0 89 c0 70 -4 93 -17 110 -25 29 -72 36 -102 15z"/>
<path d="M2409 1169 c-15 -5 -32 -23 -39 -39 -18 -43 0 -65 67 -87 37 -11 58
-24 58 -33 0 -18 -53 -26 -68 -11 -14 14 -67 14 -67 1 0 -5 9 -19 20 -30 28
-28 117 -28 154 1 50 39 28 90 -47 109 -64 17 -69 19 -65 33 6 16 57 22 71 8
14 -14 44 -14 53 0 21 34 -81 70 -137 48z"/>
<path d="M3174 1166 c-30 -13 -49 -38 -37 -50 10 -10 53 -7 53 4 0 17 60 12
67 -6 7 -20 -13 -34 -50 -34 -30 0 -67 -16 -79 -34 -14 -20 -8 -63 10 -79 21
-19 73 -22 103 -7 13 7 19 7 19 0 0 -5 14 -10 30 -10 l30 0 0 86 c0 98 -7 118
-51 133 -41 14 -57 13 -95 -3z m86 -134 c0 -25 -19 -42 -47 -42 -31 0 -42 29
-18 46 28 20 65 18 65 -4z"/>
<path d="M2600 1082 c0 -107 13 -132 68 -132 21 0 48 7 60 16 20 14 22 14 22
0 0 -11 10 -16 30 -16 l30 0 0 110 0 110 -32 0 -33 0 1 -62 c2 -89 -8 -110
-48 -106 l-33 3 -3 83 -3 82 -29 0 -30 0 0 -88z"/>
<path d="M2347 763 c-4 -3 -7 -11 -7 -17 0 -6 5 -5 12 2 6 6 9 14 7 17 -3 3
-9 2 -12 -2z"/>
<path d="M3207 763 c-4 -3 -7 -11 -7 -17 0 -6 5 -5 12 2 6 6 9 14 7 17 -3 3
-9 2 -12 -2z"/>
<path d="M1550 690 c0 -40 4 -70 10 -70 6 0 10 30 10 70 0 40 -4 70 -10 70 -6
0 -10 -30 -10 -70z"/>
<path d="M2590 690 c0 -40 4 -70 10 -70 6 0 10 11 10 24 0 19 8 27 35 36 26 9
35 17 35 34 0 31 -19 46 -57 46 l-33 0 0 -70z m70 45 c18 -21 5 -45 -25 -45
-21 0 -25 5 -25 30 0 23 5 30 19 30 10 0 24 -7 31 -15z"/>
<path d="M2890 736 c0 -19 -4 -22 -25 -18 -33 6 -55 -14 -55 -48 0 -35 19 -51
59 -48 l31 2 0 68 c0 37 -2 68 -5 68 -3 0 -5 -11 -5 -24z m-6 -48 c13 -21 -2
-51 -27 -56 -23 -5 -40 33 -27 59 13 23 38 22 54 -3z"/>
<path d="M1600 668 c0 -59 18 -64 22 -5 2 34 7 42 23 42 16 0 21 -8 23 -42 4
-54 22 -57 22 -4 0 46 -14 60 -58 59 -32 -1 -32 -2 -32 -50z"/>
<path d="M1722 665 c1 -42 2 -44 5 -13 8 73 59 78 66 6 4 -40 4 -39 3 7 l-1
50 -37 0 -38 1 2 -51z"/>
<path d="M1842 708 c-7 -7 -12 -24 -12 -38 0 -53 57 -69 86 -25 15 23 15 27 0
50 -18 27 -54 33 -74 13z m56 -10 c17 -17 15 -58 -4 -65 -36 -13 -68 33 -44
62 15 18 32 19 48 3z"/>
<path d="M1940 716 c0 -11 40 -96 45 -96 8 0 46 92 40 98 -2 3 -13 -15 -23
-39 l-19 -44 -13 43 c-7 23 -17 42 -22 42 -4 0 -8 -2 -8 -4z"/>
<path d="M2056 711 c-4 -6 5 -9 20 -8 38 3 41 -19 4 -27 -26 -5 -31 -10 -28
-28 2 -18 10 -23 36 -24 l33 -1 -3 46 c-3 41 -6 46 -30 49 -14 2 -29 -1 -32
-7z m52 -58 c-4 -22 -48 -31 -48 -10 0 19 10 27 32 27 13 0 18 -6 16 -17z"/>
<path d="M2166 704 c-19 -18 -21 -55 -4 -72 7 -7 23 -11 38 -11 23 2 23 2 2 6
-12 2 -27 13 -32 24 -14 25 2 56 32 62 23 4 23 4 1 6 -12 0 -29 -6 -37 -15z"/>
<path d="M2250 670 c0 -27 5 -50 10 -50 6 0 10 23 10 50 0 28 -4 50 -10 50 -5
0 -10 -22 -10 -50z"/>
<path d="M2306 697 c-20 -30 -10 -66 22 -74 33 -8 56 8 60 41 7 54 -53 78 -82
33z m68 -9 c14 -23 -3 -52 -32 -56 -16 -2 -23 3 -28 22 -12 48 35 74 60 34z"/>
<path d="M2422 665 c1 -42 2 -44 5 -13 8 73 59 78 66 6 4 -40 4 -39 3 7 l-1
50 -37 0 -38 1 2 -51z"/>
<path d="M2710 701 c-13 -26 -13 -54 2 -69 13 -13 68 -17 68 -4 0 4 -12 8 -27
7 -18 0 -29 6 -31 18 -3 14 4 17 32 17 20 0 36 3 36 6 0 20 -24 44 -45 44 -14
0 -29 -8 -35 -19z m58 -8 c2 -8 -6 -13 -22 -13 -25 0 -33 10 -19 24 10 10 36
3 41 -11z"/>
<path d="M2946 711 c-3 -4 6 -6 19 -3 18 3 25 0 25 -12 0 -9 -8 -16 -19 -16
-24 0 -45 -25 -37 -45 4 -10 17 -14 41 -13 32 3 35 6 35 35 0 17 -3 38 -6 47
-6 17 -49 22 -58 7z m44 -55 c0 -19 -17 -29 -37 -22 -12 5 -13 9 -3 21 16 19
40 19 40 1z"/>
<path d="M3044 695 c-15 -23 -15 -27 1 -51 13 -20 23 -25 41 -21 38 7 26 -26
-11 -34 -17 -4 -23 -8 -15 -9 50 -8 70 16 70 85 l0 52 -35 1 c-27 1 -39 -4
-51 -23z m61 -25 c0 -31 -3 -35 -25 -35 -19 0 -26 6 -28 23 -5 36 5 54 30 50
19 -2 23 -9 23 -38z"/>
<path d="M3166 697 c-20 -30 -10 -66 22 -74 33 -8 56 8 60 41 7 54 -53 78 -82
33z m64 -7 c15 -28 -4 -62 -33 -58 -16 2 -23 11 -25 32 -5 44 38 64 58 26z"/>
<path d="M3278 696 c-8 -20 -8 -32 1 -52 10 -22 17 -25 42 -22 23 4 29 1 27
-11 -2 -10 -17 -18 -38 -21 -26 -4 -31 -7 -17 -12 9 -4 28 -3 42 2 22 9 25 15
25 65 0 71 1 69 -37 73 -27 3 -35 -1 -45 -22z m70 -17 c3 -29 -20 -54 -43 -45
-15 5 -21 57 -8 70 16 16 48 1 51 -25z"/>
<path d="M3403 670 c0 -30 2 -43 4 -27 2 15 2 39 0 55 -2 15 -4 2 -4 -28z"/>
<path d="M3456 704 c-32 -31 -11 -85 32 -83 l27 1 -25 7 c-20 6 -25 13 -25 41
0 28 5 35 25 41 23 6 23 7 3 8 -12 1 -29 -6 -37 -15z"/>
<path d="M3550 712 c0 -5 10 -8 21 -8 35 1 33 -21 -1 -28 -26 -5 -31 -10 -28
-28 2 -19 10 -23 41 -25 36 -1 37 0 37 36 0 20 -5 42 -12 49 -14 14 -58 16
-58 4z m50 -57 c0 -9 -7 -18 -16 -22 -18 -7 -39 11 -30 26 11 17 46 13 46 -4z"/>
<path d="M3701 714 c-1 -6 6 -32 15 -59 16 -45 16 -49 0 -60 -22 -17 -20 -28
2 -16 19 10 69 128 59 138 -3 2 -11 -12 -18 -31 -7 -20 -16 -36 -20 -36 -3 0
-13 17 -22 38 -8 20 -15 32 -16 26z"/>
<path d="M2037 503 c-4 -3 -7 -15 -7 -25 0 -10 -6 -18 -12 -18 -10 0 -10 -2
-1 -8 6 -4 13 -28 16 -52 l4 -45 1 48 c1 27 7 47 13 47 8 0 7 5 -2 16 -11 14
-10 18 6 30 15 11 15 14 4 14 -9 0 -19 -3 -22 -7z"/>
<path d="M2735 499 c-4 -6 -5 -12 -2 -15 2 -3 7 2 10 11 7 17 1 20 -8 4z"/>
<path d="M3503 435 c0 -44 2 -61 4 -37 2 23 2 59 0 80 -2 20 -4 1 -4 -43z"/>
<path d="M1558 493 c20 -4 22 -10 22 -69 0 -36 4 -64 10 -64 6 0 10 28 10 64
0 59 2 65 23 69 12 2 -3 4 -33 4 -30 0 -45 -2 -32 -4z"/>
<path d="M2980 430 l0 -70 30 0 c46 0 84 42 76 83 -8 40 -30 57 -73 57 l-33 0
0 -70z m71 50 c29 -16 26 -75 -6 -96 -40 -26 -55 -13 -55 51 0 49 2 55 21 55
11 0 29 -5 40 -10z"/>
<path d="M3328 473 c-2 -10 -1 -38 2 -63 4 -35 9 -45 25 -47 11 -2 14 0 8 3
-7 3 -13 23 -13 44 0 21 6 41 13 43 10 4 10 6 0 6 -7 1 -13 8 -13 16 0 21 -17
19 -22 -2z"/>
<path d="M1650 409 c0 -31 4 -48 10 -44 6 3 10 21 10 40 0 22 6 38 18 44 14 9
13 10 -10 11 -27 0 -28 -2 -28 -51z"/>
<path d="M1727 453 c-3 -5 4 -9 16 -8 29 0 38 -19 10 -23 -56 -8 -49 -63 8
-59 29 2 30 4 27 47 -3 40 -6 45 -30 48 -14 2 -28 -1 -31 -5z m53 -52 c0 -5
-7 -14 -15 -21 -18 -15 -42 1 -31 19 8 13 46 15 46 2z"/>
<path d="M1820 408 c0 -59 18 -64 22 -5 2 34 7 42 23 42 16 0 21 -9 26 -45 l6
-45 1 52 2 53 -40 -2 -40 -1 0 -49z"/>
<path d="M1937 453 c-15 -14 -6 -34 19 -43 30 -12 27 -35 -4 -34 -12 0 -19 -3
-16 -8 8 -13 41 -9 54 7 10 12 10 18 0 30 -7 8 -19 15 -26 15 -23 0 -16 28 9
33 20 4 20 4 -4 6 -14 0 -29 -2 -32 -6z"/>
<path d="M2092 448 c-7 -7 -12 -24 -12 -38 0 -52 57 -69 85 -26 23 35 5 76
-33 76 -15 0 -33 -5 -40 -12z m66 -26 c4 -26 -13 -52 -34 -52 -23 0 -40 46
-24 65 19 23 54 15 58 -13z"/>
<path d="M2200 410 c0 -27 5 -50 10 -50 6 0 10 18 10 40 0 27 6 42 18 49 14 9
13 10 -10 11 -27 0 -28 -2 -28 -50z"/>
<path d="M2270 408 c0 -62 5 -60 13 5 4 28 3 47 -3 47 -6 0 -10 -23 -10 -52z"/>
<path d="M2313 453 c12 -3 17 -15 17 -43 0 -54 18 -60 22 -8 2 35 7 43 23 43
16 0 21 -9 26 -45 l7 -45 -2 50 -1 50 -55 1 c-30 1 -47 -1 -37 -3z"/>
<path d="M2450 452 c0 -5 10 -8 21 -8 33 1 35 -22 2 -26 -22 -2 -28 -8 -28
-28 0 -22 4 -25 35 -25 35 0 35 0 31 40 -1 22 -5 43 -8 48 -6 10 -53 9 -53 -1z
m50 -57 c0 -9 -7 -18 -16 -22 -18 -7 -39 11 -30 26 11 17 46 13 46 -4z"/>
<path d="M2548 435 c-16 -35 3 -75 36 -75 14 0 28 5 31 10 4 7 -2 9 -18 5 -19
-5 -28 -2 -37 14 -15 29 2 59 37 64 26 4 26 4 -5 6 -26 1 -35 -4 -44 -24z"/>
<path d="M2640 409 c0 -31 4 -48 10 -44 6 3 10 26 10 51 0 24 -4 44 -10 44 -5
0 -10 -23 -10 -51z"/>
<path d="M2690 440 c-25 -46 11 -90 60 -75 24 7 37 51 23 74 -16 26 -69 26
-83 1z m70 -9 c19 -36 -17 -74 -46 -50 -15 12 -19 51 -7 62 13 14 43 7 53 -12z"/>
<path d="M2812 406 l1 -51 6 45 c5 37 10 46 29 48 20 3 22 -1 22 -37 0 -22 5
-43 11 -46 7 -5 9 9 7 42 l-3 48 -37 1 -38 1 2 -51z"/>
<path d="M3117 453 c-11 -10 -8 -81 3 -88 6 -4 10 13 10 44 0 52 -1 56 -13 44z"/>
<path d="M3167 453 c-13 -12 -7 -71 8 -83 8 -7 24 -10 36 -7 15 4 19 1 17 -11
-2 -11 -17 -19 -38 -23 l-35 -6 35 -2 c49 -1 60 13 60 81 l0 58 -38 0 c-21 0
-42 -3 -45 -7z m61 -39 c4 -37 -23 -54 -46 -30 -22 22 -8 68 21 64 16 -2 23
-11 25 -34z"/>
<path d="M3281 410 c1 -55 1 -55 9 -15 4 22 4 47 -1 55 -5 10 -8 -5 -8 -40z"/>
<path d="M3400 451 c0 -4 11 -6 25 -3 18 3 25 0 25 -11 0 -8 -13 -17 -31 -21
-25 -5 -30 -10 -27 -28 2 -19 9 -23 41 -23 35 -1 37 1 37 31 0 50 -9 64 -41
64 -16 0 -29 -4 -29 -9z m50 -56 c0 -9 -7 -18 -16 -22 -18 -7 -39 11 -30 26
11 17 46 13 46 -4z"/>
</g>
</svg>
